HIERARCHY
ROOT pelvis
{
	OFFSET 0.003123 -0.351407 0.012037
	CHANNELS 6 Xposition Yposition Zposition Zrotation Yrotation Xrotation 
	JOINT left_hip
	{
		OFFSET 0.058189 -0.092763 -0.026001
		CHANNELS 3 Zrotation Yrotation Xrotation
		JOINT left_knee
		{
			OFFSET 0.054695 -0.378753 -0.009396
			CHANNELS 3 Zrotation Yrotation Xrotation
			JOINT left_ankle
			{
				OFFSET -0.043453 -0.403059 -0.031876
				CHANNELS 3 Zrotation Yrotation Xrotation
				JOINT left_foot
				{
					OFFSET 0.047257 -0.057997 0.118216
					CHANNELS 3 Zrotation Yrotation Xrotation
					End Site
					{
						OFFSET 0.000000 0.000000 0.000000
					}
				}
			}
		}
	}
	JOINT right_hip
	{
		OFFSET -0.063267 -0.103908 -0.021250
		CHANNELS 3 Zrotation Yrotation Xrotation
		JOINT right_knee
		{
			OFFSET -0.044210 -0.362380 -0.016824
			CHANNELS 3 Zrotation Yrotation Xrotation
			JOINT right_ankle
			{
				OFFSET 0.015417 -0.410728 -0.020192
				CHANNELS 3 Zrotation Yrotation Xrotation
				JOINT right_foot
				{
					OFFSET -0.038812 -0.058328 0.119049
					CHANNELS 3 Zrotation Yrotation Xrotation
					End Site
					{
						OFFSET 0.000000 0.000000 0.000000
					}
				}
			}
		}
	}
	JOINT spine_1
	{
		OFFSET -0.002763 0.109891 -0.027618
		CHANNELS 3 Zrotation Yrotation Xrotation
		JOINT spine_2
		{
			OFFSET 0.009448 0.131853 -0.005940
			CHANNELS 3 Zrotation Yrotation Xrotation
			JOINT spine_3
			{
				OFFSET -0.011330 0.052235 0.028447
				CHANNELS 3 Zrotation Yrotation Xrotation
				JOINT neck
				{
					OFFSET -0.012164 0.165167 -0.031615
					CHANNELS 3 Zrotation Yrotation Xrotation
					JOINT head
					{
						OFFSET 0.024783 0.160452 0.020737
						CHANNELS 3 Zrotation Yrotation Xrotation
						End Site
						{
							OFFSET 0.000000 0.000000 0.000000
						}
					}
				}
				JOINT left_collar
				{
					OFFSET 0.046364 0.084944 -0.007220
					CHANNELS 3 Zrotation Yrotation Xrotation
					JOINT left_shoulder
					{
						OFFSET 0.119239 0.057728 -0.015461
						CHANNELS 3 Zrotation Yrotation Xrotation
						JOINT left_elbow
						{
							OFFSET 0.254123 -0.072151 -0.042459
							CHANNELS 3 Zrotation Yrotation Xrotation
							JOINT left_wrist
							{
								OFFSET 0.251987 0.023221 -0.002472
								CHANNELS 3 Zrotation Yrotation Xrotation
								JOINT left_index_1
								{
									OFFSET 0.101902 -0.008688 0.019351
									CHANNELS 3 Zrotation Yrotation Xrotation
									JOINT left_index_2
									{
										OFFSET 0.030149 -0.011154 0.001151
										CHANNELS 3 Zrotation Yrotation Xrotation
										JOINT left_index_3
										{
											OFFSET 0.006504 -0.021577 -0.002433
											CHANNELS 3 Zrotation Yrotation Xrotation
											End Site
											{
												OFFSET 0.000000 0.000000 0.000000
											}
										}
									}
								}
								JOINT left_middle_1
								{
									OFFSET 0.109398 -0.006328 -0.003981
									CHANNELS 3 Zrotation Yrotation Xrotation
									JOINT left_middle_2
									{
										OFFSET 0.026472 -0.015218 -0.004641
										CHANNELS 3 Zrotation Yrotation Xrotation
										JOINT left_middle_3
										{
											OFFSET 0.005022 -0.023347 -0.001911
											CHANNELS 3 Zrotation Yrotation Xrotation
											End Site
											{
												OFFSET 0.000000 0.000000 0.000000
											}
										}
									}
								}
								JOINT left_pinky_1
								{
									OFFSET 0.084047 -0.014539 -0.043750
									CHANNELS 3 Zrotation Yrotation Xrotation
									JOINT left_pinky_2
									{
										OFFSET 0.012124 -0.014448 -0.005375
										CHANNELS 3 Zrotation Yrotation Xrotation
										JOINT left_pinky_3
										{
											OFFSET 0.003798 -0.018853 0.000167
											CHANNELS 3 Zrotation Yrotation Xrotation
											End Site
											{
												OFFSET 0.000000 0.000000 0.000000
											}
										}
									}
								}
								JOINT left_ring_1
								{
									OFFSET 0.097444 -0.009268 -0.027345
									CHANNELS 3 Zrotation Yrotation Xrotation
									JOINT left_ring_2
									{
										OFFSET 0.023561 -0.016057 -0.001895
										CHANNELS 3 Zrotation Yrotation Xrotation
										JOINT left_ring_3
										{
											OFFSET 0.004257 -0.023548 0.000814
											CHANNELS 3 Zrotation Yrotation Xrotation
											End Site
											{
												OFFSET 0.000000 0.000000 0.000000
											}
										}
									}
								}
								JOINT left_thumb_1
								{
									OFFSET 0.040636 -0.017977 0.025611
									CHANNELS 3 Zrotation Yrotation Xrotation
									JOINT left_thumb_2
									{
										OFFSET 0.021637 -0.017639 0.011623
										CHANNELS 3 Zrotation Yrotation Xrotation
										JOINT left_thumb_3
										{
											OFFSET 0.024002 -0.008356 0.006548
											CHANNELS 3 Zrotation Yrotation Xrotation
											End Site
											{
												OFFSET 0.000000 0.000000 0.000000
											}
										}
									}
								}
							}
						}
					}
				}
				JOINT right_collar
				{
					OFFSET -0.047695 0.084339 -0.013400
					CHANNELS 3 Zrotation Yrotation Xrotation
					JOINT right_shoulder
					{
						OFFSET -0.102578 0.053524 -0.012669
						CHANNELS 3 Zrotation Yrotation Xrotation
						JOINT right_elbow
						{
							OFFSET -0.271150 -0.036492 -0.026467
							CHANNELS 3 Zrotation Yrotation Xrotation
							JOINT right_wrist
							{
								OFFSET -0.249267 -0.004533 -0.015325
								CHANNELS 3 Zrotation Yrotation Xrotation
								JOINT right_index_1
								{
									OFFSET -0.099881 -0.011783 0.019600
									CHANNELS 3 Zrotation Yrotation Xrotation
									JOINT right_index_2
									{
										OFFSET -0.030148 -0.011154 0.001151
										CHANNELS 3 Zrotation Yrotation Xrotation
										JOINT right_index_3
										{
											OFFSET -0.006505 -0.021577 -0.002432
											CHANNELS 3 Zrotation Yrotation Xrotation
											End Site
											{
												OFFSET 0.000000 0.000000 0.000000
											}
										}
									}
								}
								JOINT right_middle_1
								{
									OFFSET -0.107376 -0.009422 -0.003734
									CHANNELS 3 Zrotation Yrotation Xrotation
									JOINT right_middle_2
									{
										OFFSET -0.026472 -0.015218 -0.004641
										CHANNELS 3 Zrotation Yrotation Xrotation
										JOINT right_middle_3
										{
											OFFSET -0.005022 -0.023347 -0.001911
											CHANNELS 3 Zrotation Yrotation Xrotation
											End Site
											{
												OFFSET 0.000000 0.000000 0.000000
											}
										}
									}
								}
								JOINT right_pinky_1
								{
									OFFSET -0.082027 -0.017634 -0.043503
									CHANNELS 3 Zrotation Yrotation Xrotation
									JOINT right_pinky_2
									{
										OFFSET -0.012123 -0.014448 -0.005374
										CHANNELS 3 Zrotation Yrotation Xrotation
										JOINT right_pinky_3
										{
											OFFSET -0.003798 -0.018852 0.000167
											CHANNELS 3 Zrotation Yrotation Xrotation
											End Site
											{
												OFFSET 0.000000 0.000000 0.000000
											}
										}
									}
								}
								JOINT right_ring_1
								{
									OFFSET -0.095423 -0.012362 -0.027099
									CHANNELS 3 Zrotation Yrotation Xrotation
									JOINT right_ring_2
									{
										OFFSET -0.023561 -0.016057 -0.001895
										CHANNELS 3 Zrotation Yrotation Xrotation
										JOINT right_ring_3
										{
											OFFSET -0.004257 -0.023548 0.000816
											CHANNELS 3 Zrotation Yrotation Xrotation
											End Site
											{
												OFFSET 0.000000 0.000000 0.000000
											}
										}
									}
								}
								JOINT right_thumb_1
								{
									OFFSET -0.038613 -0.021074 0.025861
									CHANNELS 3 Zrotation Yrotation Xrotation
									JOINT right_thumb_2
									{
										OFFSET -0.021636 -0.017639 0.011623
										CHANNELS 3 Zrotation Yrotation Xrotation
										JOINT right_thumb_3
										{
											OFFSET -0.024004 -0.008353 0.006547
											CHANNELS 3 Zrotation Yrotation Xrotation
											End Site
											{
												OFFSET 0.000000 0.000000 0.000000
											}
										}
									}
								}
							}
						}
					}
				}
			}
		}
	}
}
MOTION
Frames: 4
Frame Time: 0.050000
-0.276047 1.024910 -0.145920 -4.743905 -5.265473 -2.311354 23.015325 0.219674 -2.637881 -8.481517 0.574874 8.328249 -11.046349 0.325785 26.130102 0.000000 0.000000 0.000000 14.364292 0.847471 -5.836354 -9.914129 3.073040 19.039722 -3.403565 -22.626960 64.752151 0.000000 0.000000 0.000000 0.395056 -0.657484 8.028459 -5.998694 -3.040249 -23.069448 7.523018 -8.461113 34.991116 -17.587935 3.809763 -14.186379 0.000000 0.000000 0.000000 11.049851 -1.289751 0.170774 -84.252012 -37.130281 10.779701 45.375192 -31.082960 -8.263854 -1.155961 0.211860 -15.396769 3.661222 -1.620935 -0.637726 15.523187 -1.104295 -5.314623 0.000000 0.000000 0.000000 2.787930 -2.781959 -1.293061 14.564442 -0.343322 -1.324600 0.000000 0.000000 0.000000 8.267937 -6.482840 -8.051246 6.334433 1.943622 7.924163 0.000000 0.000000 0.000000 2.415037 -1.919079 -1.437763 14.166093 0.811268 -2.588947 0.000000 0.000000 0.000000 10.762013 1.865505 -5.327789 -12.702562 -5.261906 1.428769 0.000000 0.000000 0.000000 -6.907097 -21.550839 -9.166241 23.220052 -15.509821 -5.082323 6.708149 9.682183 -0.125769 -3.129416 -1.420743 2.357796 -0.542366 0.346976 -0.156939 -31.207571 4.144529 -4.889479 0.000000 0.000000 0.000000 -5.823949 6.131970 -2.858307 -24.707997 2.612676 5.506610 0.000000 0.000000 0.000000 -23.409907 9.556452 -2.164298 -7.915374 -0.817353 8.289256 0.000000 0.000000 0.000000 -10.511846 3.815586 -2.047426 -18.268734 -0.167188 5.663509 0.000000 0.000000 0.000000 -9.561604 -8.335377 3.609041 13.169265 12.114192 0.974697 0.000000 0.000000 0.000000 
-0.279816 1.022331 -0.151199 -3.874728 -7.591089 -2.374816 23.201091 0.561701 -4.025118 -10.155657 0.947892 13.047120 -9.943166 0.667180 24.955474 0.000000 0.000000 0.000000 13.719101 0.951252 -6.304744 -10.232229 3.493531 20.759033 -2.254801 -21.517287 59.732482 0.000000 0.000000 0.000000 1.270561 -0.698881 8.082023 -5.027992 -3.638937 -23.943513 4.258787 -8.558819 35.503373 -18.050992 3.984041 -14.974356 0.000000 0.000000 0.000000 14.400522 0.716178 -0.953475 -89.347780 -32.196614 11.006539 24.486019 -24.310230 -2.394351 -2.630789 0.800941 -9.619180 3.922431 -1.125632 -0.514042 3.571272 -0.921595 -3.296671 0.000000 0.000000 0.000000 2.096777 0.010567 0.367549 5.009123 -0.654375 -2.593940 0.000000 0.000000 0.000000 2.788056 -3.816291 -4.812215 5.824081 1.101702 4.684215 0.000000 0.000000 0.000000 0.640271 -0.898999 -0.675386 6.296569 -0.014737 -2.354882 0.000000 0.000000 0.000000 5.530082 -2.464023 -5.171009 -6.886601 0.004673 1.590628 0.000000 0.000000 0.000000 -6.796431 -20.244974 -8.525062 27.640362 -12.323424 -6.350661 6.520432 9.359876 -0.151990 -2.206105 -1.689183 2.079989 0.180151 -0.279836 0.113237 -29.368102 4.265006 -9.005729 0.000000 0.000000 0.000000 -3.716840 5.218217 -2.520812 -28.153471 3.066985 6.100707 0.000000 0.000000 0.000000 -22.308068 12.110103 -7.095059 -5.088314 -1.711904 13.282917 0.000000 0.000000 0.000000 -9.449798 2.965761 -1.416118 -19.780747 -0.123327 6.155048 0.000000 0.000000 0.000000 -9.625313 -7.387411 2.625081 12.961199 11.125440 1.153751 0.000000 0.000000 0.000000 
-0.287354 1.020397 -0.151199 -1.941492 -10.601003 -4.727715 24.286262 1.241583 -6.602347 -14.403640 2.626710 22.615446 -10.386464 2.313257 28.799531 0.000000 0.000000 0.000000 11.816777 0.362236 -3.896102 -10.645128 4.000983 22.371161 0.568537 -19.060811 53.141859 0.000000 0.000000 0.000000 1.400571 -0.631951 7.089657 -6.578432 -3.136578 -23.181463 4.112410 -7.361197 35.873551 -18.224290 4.081679 -12.369735 0.000000 0.000000 0.000000 16.492052 2.014350 -1.625239 -92.263807 -28.924714 10.572511 5.932461 -11.322437 0.543185 -3.607710 2.196268 4.211999 2.921233 -1.180509 -0.650826 -9.761645 2.088757 1.384072 0.000000 0.000000 0.000000 1.650766 3.466100 2.418671 -5.113308 -0.910585 -5.593819 0.000000 0.000000 0.000000 -4.799457 5.292494 3.415101 6.778840 -0.771361 -9.357919 0.000000 0.000000 0.000000 -1.197010 1.416200 0.874622 -0.987542 -0.542796 -3.260704 0.000000 0.000000 0.000000 -3.723907 -6.202485 -3.195708 4.486368 5.608170 0.748307 0.000000 0.000000 0.000000 -6.825807 -19.406534 -8.080957 30.488317 -12.203206 -7.385179 7.736937 8.147087 -0.172436 -3.153423 -3.056026 4.306651 0.560392 3.767089 -1.473225 -30.410380 4.037835 0.172156 0.000000 0.000000 0.000000 -6.684148 6.313320 -2.880000 -22.362574 2.471744 4.503896 0.000000 0.000000 0.000000 -20.483125 12.066953 -7.054452 -6.866094 -1.361658 13.318516 0.000000 0.000000 0.000000 -7.574531 3.892592 -2.143873 -18.209362 0.016984 1.807894 0.000000 0.000000 0.000000 -12.793202 -7.785332 1.761315 18.819490 14.918285 2.485758 0.000000 0.000000 0.000000 
-0.291122 1.015240 -0.153839 -0.308398 -10.965934 -6.911249 25.519370 1.964595 -11.341612 -18.768150 5.060464 31.387076 -10.179610 6.742833 35.740209 0.000000 0.000000 0.000000 9.488565 0.152727 -2.794855 -9.190434 4.203492 25.441538 1.597442 -17.480077 47.821196 0.000000 0.000000 0.000000 0.678071 -0.665759 7.646649 -6.930613 -3.175760 -23.760327 5.266200 -6.318646 36.697097 -18.271062 4.101410 -10.063005 0.000000 0.000000 0.000000 17.275617 1.012223 -1.223611 -97.530537 -27.520188 10.524779 1.449336 -4.599629 0.367230 -4.477673 3.176202 10.968132 0.417583 -2.548014 -1.321352 -8.007143 4.583559 5.220635 0.000000 0.000000 0.000000 -1.085325 4.695894 2.501937 -3.510441 -0.247245 -4.107542 0.000000 0.000000 0.000000 -4.340770 9.130861 5.611144 4.168012 0.987583 -15.329785 0.000000 0.000000 0.000000 -0.975815 5.701571 3.414086 -4.471800 -1.037416 -9.967147 0.000000 0.000000 0.000000 -9.789151 -5.674011 -0.742781 13.904084 5.376983 -2.509328 0.000000 0.000000 0.000000 -6.479373 -19.015830 -8.021170 33.062280 -12.288390 -8.133660 8.021270 7.405932 -0.182845 -1.941900 -3.287321 4.702592 0.328451 2.541608 -1.007912 -27.872425 4.137288 -5.063099 0.000000 0.000000 0.000000 -7.078341 4.911453 -1.923665 -19.995653 2.349596 -1.098820 0.000000 0.000000 0.000000 -21.297596 8.883795 -1.522892 -4.925972 -0.642619 5.896051 0.000000 0.000000 0.000000 -7.490797 2.593971 -1.193025 -19.178357 -0.018064 0.858150 0.000000 0.000000 0.000000 -10.927657 -7.842667 2.750475 15.642316 15.010274 1.346982 0.000000 0.000000 0.000000 
